<svg xmlns="http://www.w3.org/2000/svg" viewBox="0 0 120 142" role="img" aria-labelledby="title">
  <title id="title">SGAF shield mark</title>
  <!-- Heater shield: navy outline, white interior, three stacked equal dots -->
  <path fill="#1a3a5c" d="M60 4 10 22v46c0 28 18 48 38 64 6 5 10 8 12 9 2-1 6-4 12-9 20-16 38-36 38-64V22L60 4Z"/>
  <path fill="#ffffff" d="M60 14 18 29v38c0 24 15 41 32 55 5 4 8 6 10 7 2-1 5-3 10-7 17-14 32-31 32-55V29L60 14Z"/>
  <circle cx="60" cy="48" r="11" fill="#b69246"/>
  <circle cx="60" cy="74" r="11" fill="#3d8e8f"/>
  <circle cx="60" cy="100" r="11" fill="#1a3a5c"/>
</svg>
